<?xml version="1.0" encoding="UTF-8"?>
<svg width="8px" height="8px" viewBox="0 0 8 8" version="1.1" xmlns="http://www.w3.org/2000/svg" xmlns:xlink="http://www.w3.org/1999/xlink">
    <!-- Generator: sketchtool 63.1 (101010) - https://sketch.com -->
    <title>290B10F7-1208-4841-886F-F95430EA8D00</title>
    <desc>Created with sketchtool.</desc>
    <g id="Fundo-de-Investimentos-(finalizado)" stroke="none" stroke-width="1" fill="none" fill-rule="evenodd">
        <g id="Investimento_FI_Acoes_Ibovespa" transform="translate(-859.000000, -115.000000)">
            <rect fill="transparent" x="0" y="0" width="1366" height="5875"></rect>
            <g id="Group-10" transform="translate(54.000000, 107.000000)" fill="#3FA110" fill-rule="nonzero">
                <g id="Group-11">
                    <g id="icone/seta-baixo-copy-6" transform="translate(809.000000, 12.000000) rotate(450.000000) translate(-809.000000, -12.000000) translate(805.000000, 8.000000)">
                        <path d="M5.14644661,0.146446609 C5.34170876,-0.0488155365 5.65829124,-0.0488155365 5.85355339,0.146446609 C6.02711974,0.320012961 6.04640489,0.589437362 5.91140884,0.784305503 L5.85355339,0.853553391 L2.707,4 L5.85355339,7.14644661 C6.02711974,7.32001296 6.04640489,7.58943736 5.91140884,7.7843055 L5.85355339,7.85355339 C5.67998704,8.02711974 5.41056264,8.04640489 5.2156945,7.91140884 L5.14644661,7.85355339 L1.64644661,4.35355339 C1.47288026,4.17998704 1.45359511,3.91056264 1.58859116,3.7156945 L1.64644661,3.64644661 L5.14644661,0.146446609 Z" id="Rectangle" transform="translate(3.750000, 4.000000) rotate(-180.000000) translate(-3.750000, -4.000000) "></path>
                    </g>
                </g>
            </g>
        </g>
    </g>
</svg>